<?xml version="1.0" encoding="UTF-8" standalone="no"?>
<svg
   width="1024"
   height="1024"
   viewBox="0 0 1024 1024"
   version="1.1"
   id="svg37"
   sodipodi:docname="logo.svg"
   inkscape:version="1.4.2 (1:1.4.2+202505120738+ebf0e940d0)"
   inkscape:export-filename="logo.png"
   inkscape:export-xdpi="24"
   inkscape:export-ydpi="24"
   xmlns:inkscape="http://www.inkscape.org/namespaces/inkscape"
   xmlns:sodipodi="http://sodipodi.sourceforge.net/DTD/sodipodi-0.dtd"
   xmlns="http://www.w3.org/2000/svg"
   xmlns:svg="http://www.w3.org/2000/svg">
  <defs
     id="defs37" />
  <sodipodi:namedview
     id="namedview37"
     pagecolor="#ffffff"
     bordercolor="#666666"
     borderopacity="1.0"
     inkscape:showpageshadow="2"
     inkscape:pageopacity="0.0"
     inkscape:pagecheckerboard="0"
     inkscape:deskcolor="#d1d1d1"
     inkscape:zoom="0.78808594"
     inkscape:cx="491.69764"
     inkscape:cy="512"
     inkscape:window-width="1860"
     inkscape:window-height="1016"
     inkscape:window-x="60"
     inkscape:window-y="27"
     inkscape:window-maximized="1"
     inkscape:current-layer="svg37" />
  <path
     fill="#003049"
     d="m 509.13578,193.34828 c 38.8473,-22.5629 97.3957,-35.18956 142.0392,-36.23731 254.7545,-18.29151 451.32252,259.64766 341.8629,501.1539 -71.4831,157.72066 -256.7054,244.05194 -423.0868,196.30806 -20.88,-5.99445 -41.1036,-14.58282 -60.8153,-23.63746 C 308.63588,923.76929 104.56198,823.39079 30.746279,656.03806 -91.228221,379.50036 170.26868,86.193465 453.64498,171.62412 c 19.291,5.81491 36.8027,14.45687 55.4908,21.72416 z"
     id="path1-6"
     style="fill:#ffffff;stroke-width:2.67969;fill-opacity:1"
     sodipodi:nodetypes="cccccscc" />
  <path
     fill="#003049"
     d="m 509.13576,193.34828 c 38.84733,-22.5629 97.39568,-35.18956 142.03916,-36.23731 254.75459,-18.29151 451.32258,259.64766 341.86296,501.1539 -71.48316,157.72066 -256.70538,244.05194 -423.08677,196.30806 -20.88006,-5.99445 -41.10361,-14.58282 -60.81535,-23.63746 -50.09663,23.19532 -84.43407,29.31571 -136.87809,35.95596 -12.30779,-0.41804 -24.63431,0.14201 -36.93672,-0.46895 C 204.09429,859.88674 83.881938,776.50579 30.746272,656.03806 -91.228241,379.50036 170.26868,86.193474 453.64493,171.62412 c 19.29102,5.81491 36.80274,14.45687 55.49083,21.72416 z m 30.09818,17.13388 c 7.54598,6.53039 16.32193,12.17379 24.40117,18.06106 l 9.46195,8.62589 c 9.69776,8.13015 19.73049,17.16335 28.37783,26.4029 3.22633,4.10527 6.64025,8.27753 10.4561,11.84686 4.68677,6.10163 9.37621,12.16039 14.37114,18.01281 3.00392,4.48311 6.01856,8.6661 9.69776,12.62398 3.88018,7.03416 8.54818,13.30998 12.89195,20.02794 1.74446,4.04096 3.62828,9.94429 6.99932,12.88658 3.50771,6.05876 7.10383,11.74505 11.18767,17.43668 1.49526,5.8953 2.99588,10.15868 6.64025,15.07857 2.37955,9.29581 6.05071,18.0932 9.83443,26.88791 1.2648,4.45364 2.33131,9.15112 4.37859,13.31266 1.86506,6.40712 3.42464,15.98162 6.95109,21.52052 1.39612,14.21303 5.13159,36.71431 7.54331,50.95145 -0.21705,5.75059 -0.7262,11.66197 0,17.38309 0.19561,7.35841 -0.11256,14.70877 0,22.06181 -1.07992,6.92965 -0.86018,13.76284 0,20.71126 -1.29429,7.04488 -2.60733,14.02276 -3.15667,21.17483 -2.33936,11.00009 -5.01368,22.37266 -6.50894,33.51209 -3.01196,7.56742 -5.75864,16.20135 -7.19762,24.227 -2.98785,7.22174 -6.90554,15.0464 -8.5723,22.67278 -4.52063,5.30576 -7.9801,14.05493 -9.91214,20.75948 -4.06508,8.36328 -10.31945,15.68417 -14.05225,24.03942 -7.58885,9.19399 -13.84323,20.07349 -20.43256,30.0285 -3.60954,4.64657 -7.05829,9.30117 -10.27658,14.22911 -13.88879,14.06296 -30.41437,29.38537 -43.46711,43.41351 -3.83194,2.83242 -7.63172,6.21953 -10.56061,9.98985 -9.07876,5.20661 -17.24107,12.61861 -25.73298,18.78992 -2.13303,1.28625 -4.16959,2.60197 -6.16059,4.09723 l 8.45439,2.24825 c 6.83051,2.5993 14.42472,4.11332 21.05426,6.84927 7.21906,4.90113 15.08124,6.67776 23.3293,9.13234 5.21198,2.12232 12.56502,3.66314 18.18699,3.36836 13.8218,4.03024 31.23973,4.71893 45.60549,4.85827 99.54746,2.38224 194.13216,-38.36767 260.78119,-112.16608 C 1008.9096,620.23485 1024.1651,446.02344 938.11783,331.2795 934.06079,323.57542 926.84173,314.36 920.73474,308.19673 899.36697,274.20229 850.40651,239.5969 815.07224,221.42598 718.37596,171.7045 636.7502,179.23709 539.23394,210.48216 Z M 341.02062,484.15797 c 5.28166,-8.91262 11.42884,-28.00266 24.55391,-20.06009 -2.33131,7.76839 -4.35447,15.84228 -7.54865,23.3025 -5.54962,9.7326 -13.80035,17.66982 -17.00526,28.57344 -0.15274,3.39247 -0.25188,6.68312 0,10.07828 4.63049,-4.71892 7.20298,-9.1136 14.18624,-7.10651 4.05971,10.15598 -4.27678,28.33494 -10.52043,36.75718 -3.82658,4.54474 -0.8709,8.93405 0,14.04153 -0.23046,2.46262 -0.16346,4.75643 0,7.21906 21.08641,-15.44033 12.59718,11.08315 6.95645,22.03769 2.39831,9.20738 4.25801,20.40309 8.58569,28.89499 2.57786,5.69701 4.91454,13.19476 8.86707,18.00479 -0.73156,4.00076 10.9063,23.25963 13.95846,27.60339 2.45726,6.73404 3.92841,11.27341 11.19302,13.27246 -0.11522,8.31504 13.1358,21.33025 17.95119,28.55199 3.70868,5.1048 6.82515,8.83224 12.08,12.37745 -0.10179,5.08068 15.91463,19.29906 19.69297,20.42452 2.91817,2.55911 4.21782,6.52503 6.27314,9.76209 2.84581,1.3452 6.3294,2.57249 8.80275,4.50454 v 0 c 3.6122,3.26386 11.00812,10.33285 16.10488,10.52579 1.10939,0.8441 2.0446,1.52473 2.82438,2.69308 6.25974,6.75011 19.08737,14.138 26.904,19.89662 40.66416,-24.93978 74.75506,-52.23501 103.41155,-90.63752 82.97901,-111.21479 88.16151,-262.22552 5.63002,-374.49879 -8.15158,-11.09389 -12.50071,-18.72561 -19.7546,-29.70694 -25.85357,-39.13139 -54.96562,-51.32929 -88.63313,-76.73802 l -0.65384,-0.50111 c -12.59718,10.16403 -26.46453,18.10661 -39.19033,28.00267 -38.76427,30.14641 -72.00839,70.95794 -93.43243,115.12445 3.28528,-3.24242 9.24221,-10.31677 14.5587,-8.84563 21.45352,5.93282 -25.07377,38.44539 -30.21876,45.76627 -3.93377,5.60053 -5.37544,16.13704 -7.32625,22.8014 12.33993,-18.28614 25.36586,-17.36165 20.68178,-2.25629 -7.82467,25.24795 -28.43677,23.95098 -28.93252,60.13472 z m -190.73164,282.2749 c 8.60446,5.99981 17.3295,12.81692 26.5342,17.82792 4.52331,2.41975 9.6656,4.67872 13.74676,7.75767 l -0.002,0.54398 c 8.71433,9.76208 49.63306,25.13273 63.69334,29.86504 67.38326,22.67814 158.54599,21.26327 223.71583,-11.17963 -38.64397,-17.55994 -82.7006,-67.08313 -106.7025,-101.67781 -101.90558,-146.86526 -73.39646,-349.2026 59.69525,-466.16263 13.87538,-12.19524 29.00219,-22.47181 44.18258,-32.92525 -160.28512,-63.70673 -322.14855,0.2385 -407.75551,148.49184 3.399172,-2.37152 12.756883,-10.81788 16.463951,-5.10748 5.465755,8.41956 -30.597391,37.52626 -35.675923,48.23158 -5.325604,11.22519 -7.071409,25.69546 -10.06917,37.79958 3.932157,-4.75912 13.571784,-24.78436 22.054571,-17.25715 7.523475,6.67509 -21.214227,33.42903 -25.502246,40.72312 -3.844277,6.53841 -3.98255,29.77393 -4.169051,38.17741 1.597627,-2.44655 15.388065,-25.34442 20.197825,-14.49172 3.749148,8.45708 -16.64135,28.15005 -20.197825,36.55353 -0.412941,10.79108 0.455272,21.49372 2.509787,32.0999 0.970315,-1.61853 16.379815,-27.95979 19.601336,-13.68781 1.622807,7.18691 -12.909101,24.7013 -16.562045,31.60147 l -0.418025,0.80123 c 1.894532,8.24538 3.364879,16.62474 6.291088,24.58339 1.068661,-1.50062 15.76938,-26.94151 19.167487,-11.75843 1.793507,8.01224 -10.366613,23.32125 -14.853202,30.03653 3.451156,8.26949 6.677762,16.79892 10.826718,24.7415 3.4399,-4.34644 5.492537,-14.17015 12.731967,-12.96162 13.885027,2.31793 -4.014439,22.29763 -6.087697,28.19293 4.217279,9.80494 9.520899,18.95606 15.082309,28.04285 2.098724,-5.27628 5.802312,-18.2111 13.816968,-15.39208 12.450597,4.37859 -1.866926,22.69421 -5.071558,29.36662 6.22329,8.9019 13.242715,17.12852 19.850805,25.73566 3.07895,-4.72697 6.90554,-13.60206 12.81155,-15.16968 19.34997,-5.13695 -1.32108,22.59239 -3.15934,25.12201 7.47899,7.88898 15.50196,15.24739 23.18728,22.93539 17.99406,-30.54032 28.60827,-21.54463 10.06488,8.54014 z"
     id="path1"
     style="stroke-width:2.67969" />
  <path
     fill="#d62828"
     d="m 563.63511,228.54322 c 0.74763,-2.95838 1.42827,-5.95158 2.26969,-8.88315 3.90965,-3.57737 8.25073,-6.70187 12.94553,-9.17791 2.75204,3.79444 4.95741,7.63442 6.95377,11.87903 -4.33304,4.77251 -8.19981,10.28194 -12.70704,14.80792 z"
     id="path2"
     style="stroke-width:2.67969" />
  <path
     fill="#d62828"
     d="m 607.42109,237.16911 c 91.1815,-28.66187 195.12632,-12.03176 274.22246,40.77938 13.72801,9.16183 26.26356,19.91003 39.09119,30.24824 6.10699,6.16327 13.32605,15.37869 17.38309,23.08277 2.24289,6.6456 5.8149,12.69365 8.49995,19.149 37.37619,89.82022 27.63287,192.29658 -13.57795,279.0834 -45.81718,96.48994 -137.79991,188.6254 -247.5382,204.89107 -7.69604,1.14154 -26.58779,0.81731 -32.47505,3.30137 -14.36576,-0.13934 -31.78369,-0.82803 -45.60549,-4.85827 17.19016,-15.46175 7.65853,-43.63323 -18.18699,-3.36836 -8.24806,-2.45458 -16.11024,-4.23121 -23.3293,-9.13234 8.26413,-5.99177 15.16163,-14.24251 10.78303,-24.83261 0.4877,0.12862 1.63997,0.0103 2.1625,0 7.18691,-6.46339 15.84763,-11.16622 23.64552,-16.87662 83.96244,-61.47992 135.56236,-172.16682 133.96527,-275.43636 -1.42291,-92.09259 -39.77182,-183.53134 -107.18187,-246.812 -6.85998,-6.43928 -14.50779,-12.02105 -21.23379,-18.59966 z m 41.47075,574.07874 c -7.63174,7.52454 -10.64102,19.54828 4.13474,19.68762 7.90506,-6.26242 6.3428,-17.00793 -4.13474,-19.68762 z"
     id="path3"
     style="stroke-width:2.67969" />
  <path
     fill="#d62828"
     d="m 601.47489,263.57201 c 1.73642,-5.46656 4.57957,-10.57671 5.9462,-16.12364 4.79127,4.23389 8.59642,8.50529 11.89243,14.00936 -2.34472,4.72429 -4.82074,9.35209 -7.38253,13.96114 -3.81585,-3.56933 -7.22977,-7.74159 -10.4561,-11.84686 z"
     id="path4"
     style="stroke-width:2.67969" />
  <path
     fill="#008ea2"
     d="m 365.57453,464.09788 c 8.99569,-71.86636 82.44843,-160.26636 139.3059,-198.42769 24.57535,3.62829 86.42506,37.10018 101.56794,56.99681 7.59958,9.9845 13.30194,24.08765 18.14143,35.70407 51.58923,123.79589 19.14633,270.59953 -77.38113,363.54962 -16.42109,15.81011 -34.52234,28.60291 -52.20554,42.81594 -5.44244,-8.27754 -10.09168,-0.66723 -17.0267,1.69624 -7.33964,-4.74572 -10.14259,-5.50139 -18.92926,-4.0356 v 0 c -0.0429,-3.41928 6.16862,-43.8771 -10.79911,-30.56443 -3.33621,2.61803 -3.65509,8.07655 -4.27678,11.96744 -6.09627,-6.69919 -10.76696,-15.40816 -15.63326,-23.07205 1.05847,-16.85251 -7.8193,-23.2114 -16.13971,-5.39956 -4.81539,-7.22174 -18.06641,-20.23695 -17.95119,-28.55199 6.8439,-12.9911 1.44168,-29.20585 -11.19302,-13.27246 -3.05216,-4.34376 -14.69002,-23.60263 -13.95846,-27.60339 2.74131,-5.71308 13.57526,-24.32883 -1.33984,-23.42577 -3.27189,0.19562 -5.45584,3.20758 -7.52723,5.42098 -4.32768,-8.4919 -6.18738,-19.68761 -8.58569,-28.89499 5.64073,-10.95454 14.12996,-37.47802 -6.95645,-22.03769 -0.16346,-2.46263 -0.23046,-4.75644 0,-7.21906 1.25945,-3.56934 1.92133,-10.82056 0,-14.04153 6.24365,-8.42224 14.58014,-26.6012 10.52043,-36.75718 1.60512,-8.80275 2.8217,-22.65403 2.81902,-31.54521 3.19418,-7.46022 5.21734,-15.53411 7.54865,-23.3025 z m 0,94.32476 c -22.94073,10.20959 33.00564,121.51013 50.18507,127.22857 2.64752,0.88161 5.84706,0.11791 8.51871,-0.3564 12.58646,-10.30873 -6.49823,-27.46404 -12.49535,-36.65803 -9.59594,-14.71413 -16.9463,-30.28843 -23.05866,-46.73364 -6.46339,-17.38576 -5.19054,-44.84982 -23.14977,-43.4805 z"
     id="path5"
     style="stroke-width:2.67969" />
  <path
     fill="#d62828"
     d="m 626.30213,293.43168 c 2.26701,-5.49066 4.91721,-9.23417 9.69776,-12.84371 2.2295,4.27142 4.53133,8.52139 6.66168,12.84371 -1.991,4.32501 -4.02756,8.64198 -6.66168,12.62398 -3.6792,-3.95788 -6.69384,-8.14087 -9.69776,-12.62398 z"
     id="path6"
     style="stroke-width:2.67969" />
  <path
     fill="#d62828"
     d="m 648.89184,326.0836 c 1.90525,-5.12087 4.18297,-9.48875 6.99932,-14.16479 10.29801,8.27217 9.11896,17.94849 0,27.05137 -3.37104,-2.94229 -5.25486,-8.84562 -6.99932,-12.88658 z"
     id="path7"
     style="stroke-width:2.67969" />
  <path
     fill="#d62828"
     d="m 667.07883,356.40686 c 10.17206,-19.41964 11.7504,-5.91137 16.47468,4.98958 -2.80027,3.74887 -6.08555,7.26728 -9.83443,10.08899 -3.64437,-4.91989 -5.14499,-9.18327 -6.64025,-15.07857 z"
     id="path8"
     style="stroke-width:2.67969" />
  <path
     fill="#d62828"
     d="m 683.55351,398.37334 c 0.3162,-9.14574 3.89089,-13.82714 9.20738,-21.01941 6.16595,12.8705 9.75136,25.63918 -4.82879,34.33207 -2.04728,-4.16154 -3.11379,-8.85902 -4.37859,-13.31266 z"
     id="path9"
     style="stroke-width:2.67969" />
  <path
     fill="#003049"
     d="m 84.158473,433.20652 c -17.668206,-3.87214 4.380216,-18.61307 10.532492,-21.52052 18.532675,3.94717 -3.723958,18.54607 -10.532492,21.52052 z"
     id="path10"
     style="stroke-width:2.67969" />
  <path
     fill="#d62828"
     d="m 694.88319,433.20652 c -0.083,-6.17131 7.73892,-11.42616 12.41497,-14.23983 1.82754,6.80908 3.63097,13.89415 4.26337,20.93099 0.57882,6.17398 -7.96134,10.02468 -12.2917,13.07149 -0.77174,-6.13648 -1.27016,-14.29343 -4.38664,-19.76265 z"
     id="path11"
     style="stroke-width:2.67969" />
  <path
     fill="#d62828"
     d="m 702.4265,484.15797 c 0.95664,-2.41707 0.26797,-5.2227 0,-7.75232 3.40319,-5.17446 6.91626,-9.07608 12.33189,-12.30777 2.3206,7.64513 2.70647,15.37869 3.20222,23.3025 -5.47727,4.5099 -10.45344,9.21274 -15.53411,14.14068 -0.7262,-5.72112 -0.21705,-11.6325 0,-17.38309 z"
     id="path12"
     style="stroke-width:2.67969" />
  <path
     fill="#003049"
     d="M 150.28898,706.48305 C 132.06716,706.23651 104.57362,658.14964 96.558703,642.97997 75.340182,602.81424 64.010227,560.25823 63.695632,514.85103 c -0.07214,-10.41056 -3.058321,-25.27207 8.355507,-30.69306 19.366595,-1.27553 11.69895,26.33859 12.529927,41.37695 2.746131,49.69736 19.478064,99.51531 49.246634,139.56045 7.688,10.3409 17.5412,19.06594 24.227,30.15446 -1.26482,5.60589 -1.68284,9.31457 -7.76572,11.23322 z"
     id="path13"
     style="stroke-width:2.67969" />
  <path
     fill="#d62828"
     d="m 702.4265,523.60287 c 4.33304,-7.002 8.06584,-11.37525 15.53411,-15.20719 0.12594,8.48655 0.62704,17.29467 0,25.74638 -4.85826,3.93645 -10.67853,6.31332 -15.53411,10.17207 -0.86018,-6.94842 -1.07992,-13.78161 0,-20.71126 z"
     id="path14"
     style="stroke-width:2.67969" />
  <path
     fill="#050d0a"
     d="m 424.27831,685.29481 c -2.67165,0.47431 -5.87119,1.23801 -8.51871,0.3564 -17.17943,-5.71844 -73.1258,-117.01898 -50.18507,-127.22857 17.95923,-1.36932 16.68638,26.09474 23.14977,43.4805 6.11236,16.44521 13.46272,32.01951 23.05866,46.73364 5.99712,9.19399 25.08181,26.3493 12.49535,36.65803 z"
     id="path15"
     style="stroke-width:2.67969" />
  <path
     fill="#d62828"
     d="m 699.26983,565.48896 c 4.77251,-4.09991 9.4968,-5.47727 15.48856,-7.06632 -8.20786,29.46846 0.79586,21.63843 -21.9975,40.57841 1.49526,-11.13943 4.16958,-22.512 6.50894,-33.51209 z"
     id="path16"
     style="stroke-width:2.67969" />
  <path
     fill="#d62828"
     d="m 685.56327,623.22805 c 5.1021,-6.60006 9.07876,-9.52895 16.86323,-12.42836 -3.37372,9.15379 -6.55182,18.32366 -9.66561,27.56855 -5.02173,2.96909 -10.43736,5.18787 -15.76992,7.53259 1.66676,-7.62638 5.58445,-15.45104 8.5723,-22.67278 z"
     id="path17"
     style="stroke-width:2.67969" />
  <path
     fill="#050d0a"
     d="m 360.22857,627.89604 c 2.07139,-2.2134 4.25534,-5.22536 7.52723,-5.42098 14.9151,-0.90306 4.08115,17.71269 1.33984,23.42577 -3.95253,-4.81003 -6.28921,-12.30778 -8.86707,-18.00479 z"
     id="path18"
     style="stroke-width:2.67969" />
  <path
     fill="#d62828"
     d="m 667.07883,666.66031 c 16.58723,-3.77567 5.94353,10.76428 2.28308,18.6345 -5.43171,1.7552 -11.09387,3.15131 -16.33533,5.40492 3.7328,-8.35525 9.98717,-15.67614 14.05225,-24.03942 z"
     id="path19"
     style="stroke-width:2.67969" />
  <path
     fill="#050d0a"
     d="m 383.0541,673.50422 c 12.6347,-15.93339 18.03692,0.28136 11.19302,13.27246 -7.26461,-1.99905 -8.73576,-6.53842 -11.19302,-13.27246 z"
     id="path20"
     style="stroke-width:2.67969" />
  <path
     fill="#050d0a"
     d="m 412.19831,715.32867 c 8.32041,-17.81184 17.19818,-11.45295 16.13971,5.39956 -1.32644,2.31525 -2.57249,4.76716 -4.05971,6.97789 -5.25485,-3.54521 -8.37132,-7.27265 -12.08,-12.37745 z"
     id="path21"
     style="stroke-width:2.67969" />
  <path
     fill="#003049"
     d="m 190.56994,743.80028 c -13.39572,1.22462 -37.27972,-24.77096 -17.5921,-32.05166 13.21618,1.40147 36.42222,21.1802 17.5921,32.05166 z"
     id="path22"
     style="stroke-width:2.67969" />
  <path
     fill="#d62828"
     d="m 632.59402,720.72823 c 4.96813,0.97808 5.71844,2.84046 8.02563,6.97789 -8.37131,11.53067 -9.85586,9.81031 -21.30613,16.09416 0.86017,-3.02535 1.83022,-5.92209 3.00392,-8.84294 3.21829,-4.92794 6.66704,-9.58254 10.27658,-14.22911 z"
     id="path23"
     style="stroke-width:2.67969" />
  <path
     fill="#050d0a"
     d="m 443.97128,743.80028 c 0.62169,-3.89089 0.94057,-9.34941 4.27678,-11.96744 16.96773,-13.31267 10.75623,27.14515 10.79911,30.56443 -2.47335,-1.93205 -5.95694,-3.15934 -8.80275,-4.50454 -2.05532,-3.23706 -3.35497,-7.20298 -6.27314,-9.76209 z"
     id="path24"
     style="stroke-width:2.67969" />
  <path
     fill="#003049"
     d="m 303.11118,792.01846 c -9.77815,-1.07723 -124.90528,-27.75881 -86.93957,-48.21818 10.4722,-0.94592 23.08009,8.53478 32.66532,12.70169 17.20622,7.48435 35.6076,9.83979 53.3578,15.21523 10.75088,3.25581 12.55966,16.20939 0.91645,20.30126 z"
     id="path25"
     style="stroke-width:2.67969" />
  <path
     fill="#050d0a"
     d="m 477.97643,766.43287 c 6.93502,-2.36347 11.58426,-9.97378 17.0267,-1.69624 1.48721,2.86994 3.04947,5.50138 4.85289,8.18643 -10.78571,15.05713 -10.58206,0.73959 -21.87959,2.69308 -0.77978,-1.16835 -1.71499,-1.84898 -2.82438,-2.69308 -0.11791,-2.94765 1.11475,-4.25533 2.82438,-6.49019 z"
     id="path26"
     style="stroke-width:2.67969" />
  <path
     fill="#050d0a"
     d="m 523.93028,778.37085 c -6.66169,2.89673 -11.67805,-8.67145 -6.06411,-13.63422 9.44318,0.0322 13.94505,7.77912 6.06411,13.63422 z"
     id="path27"
     style="stroke-width:2.67969" />
  <path
     fill="#003049"
     d="m 176.82318,784.26079 c 25.71154,-38.07827 26.59851,1.99635 13.74676,7.75767 -4.08116,-3.07895 -9.22345,-5.33792 -13.74676,-7.75767 z"
     id="path28"
     style="stroke-width:2.67969" />
  <path
     fill="#003049"
     d="m 344.68643,795.51276 c -25.47572,0.58417 -23.83309,-17.77164 -9.70581,-19.89662 22.23063,-3.01732 25.78121,15.78063 9.70581,19.89662 z"
     id="path29"
     style="stroke-width:2.67969" />
  <path
     fill="#d62828"
     d="m 568.28972,788.3607 c 2.92889,-3.77032 6.72867,-7.15743 10.56061,-9.98985 10.54187,3.639 1.72572,10.05951 0,17.14191 -0.52253,0.0103 -1.6748,0.12862 -2.1625,0 -9.87462,2.59394 -22.36193,12.88927 -31.83729,17.98334 l -8.45439,-2.24825 c 1.991,-1.49526 4.02756,-2.81098 6.16059,-4.09723 8.18642,-1.90257 22.88179,-10.95186 25.73298,-18.78992 z"
     id="path30"
     style="stroke-width:2.67969" />
  <path
     fill="#003049"
     d="m 221.82038,807.15062 c 3.67385,-6.47947 7.48703,-11.03493 13.74944,-15.13216 13.22155,1.65068 6.59738,17.69126 -2.56445,19.22939 -3.69528,-1.47918 -7.42003,-2.80563 -11.18499,-4.09723 z"
     id="path31"
     style="stroke-width:2.67969" />
  <path
     fill="#050d0a"
     d="m 544.85054,813.4961 c 9.47536,-5.09407 21.96267,-15.3894 31.83729,-17.98334 4.3786,10.5901 -2.5189,18.84084 -10.78303,24.83261 -6.62954,-2.73595 -14.22375,-4.24997 -21.05426,-6.84927 z"
     id="path32"
     style="stroke-width:2.67969" />
  <path
     fill="#050d0a"
     d="m 589.2341,829.47771 c 25.84552,-40.26487 35.37715,-12.09339 18.18699,3.36836 -5.62197,0.29478 -12.97501,-1.24604 -18.18699,-3.36836 z"
     id="path33"
     style="stroke-width:2.67969" />
  <path
     fill="#003049"
     d="m 263.73327,820.34537 c 4.6546,-4.21514 8.70897,-6.8064 14.55067,-9.09752 17.2759,-2.37687 13.51362,13.14383 0,13.04201 -5.05924,-0.91646 -9.78083,-1.98832 -14.55067,-3.94449 z"
     id="path34"
     style="stroke-width:2.67969" />
  <path
     fill="#050d0a"
     d="m 653.02658,830.93547 c -14.77576,-0.13934 -11.76648,-12.16308 -4.13474,-19.68762 10.47754,2.67969 12.0398,13.4252 4.13474,19.68762 z"
     id="path35"
     style="stroke-width:2.67969" />
  <path
     fill="#003049"
     d="m 372.25767,820.34537 c 4.23657,-1.18978 9.0734,-1.31841 13.45735,-1.77127 7.81395,-2.81903 16.26298,10.84467 -7.30481,12.36137 h -9.31457 c 1.12279,-3.5747 1.77931,-7.05828 3.16203,-10.5901 z"
     id="path36"
     style="stroke-width:2.67969" />
  <path
     fill="#003049"
     d="m 331.18351,820.34537 c 3.17006,-1.01292 6.55182,-1.31037 9.83711,-1.77127 11.74237,-0.24385 13.01789,14.32289 -9.83711,14.27197 l -8.02296,-1.9106 c 2.15447,-4.46168 4.23926,-7.34501 8.02296,-10.5901 z"
     id="path37"
     style="stroke-width:2.67969" />
</svg>
